<?xml version="1.0" encoding="utf-8"?>
<!-- Generator: Adobe Illustrator 23.0.1, SVG Export Plug-In . SVG Version: 6.00 Build 0)  -->
<svg version="1.1" id="Layer_1" xmlns="http://www.w3.org/2000/svg" xmlns:xlink="http://www.w3.org/1999/xlink" x="0px" y="0px"
	 viewBox="0 0 108 108" style="enable-background:new 0 0 108 108;" xml:space="preserve">
<style type="text/css">
	.st0{fill:#FFFFFF;}
</style>
<path class="st0" d="M62.8,10c-5.5,0-10.8,1.6-15,5.1s-7,9-7,15.6v8.3h-5.5c-2.3,0-4.1,1.8-4.1,4.1v13.9c0,2.3,1.8,4.1,4.1,4.1
	c0,0,0,0,0,0l5.5-0.1v33c0,2.3,1.8,4.1,4.1,4.1h13.8c2.3,0,4.1-1.8,4.1-4.1v-33h9.6c2.3,0,4.1-1.8,4.1-4.1V43c0-2.3-1.8-4.1-4.1-4.1
	h-9.6V32h9.6c2.3,0,4.1-1.8,4.1-4.1V14.1c0-2.3-1.8-4.1-4.1-4.1H62.8z"/>
</svg>
