<?xml version="1.0" encoding="utf-8"?>
<!-- Generator: Adobe Illustrator 23.0.1, SVG Export Plug-In . SVG Version: 6.00 Build 0)  -->
<svg version="1.1" id="Layer_1" xmlns="http://www.w3.org/2000/svg" xmlns:xlink="http://www.w3.org/1999/xlink" x="0px" y="0px"
	 viewBox="0 0 108 108" style="enable-background:new 0 0 108 108;" xml:space="preserve">
<style type="text/css">
	.st0{fill:#FFFFFF;}
</style>
<g transform="translate(0,-952.36218)">
	<path class="st0" d="M33,962.4c-12.7,0-23,10.3-23,23v42c0,12.7,10.3,23,23,23h42c12.7,0,23-10.3,23-23v-42c0-12.7-10.3-23-23-23
		L33,962.4L33,962.4z M38,970.4h32c11,0,20,9,20,20v32c0,11-9,20-20,20H38c-11,0-20-9-20-20v-32C18,979.3,27,970.4,38,970.4
		L38,970.4z M38,974.4c-8.9,0-16,7.1-16,16v32c0,8.9,7.1,16,16,16h32c8.9,0,16-7.1,16-16v-32c0-8.9-7.1-16-16-16L38,974.4L38,974.4z
		 M74,980.4c2.2,0,4,1.8,4,4c0,2.2-1.8,4-4,4c-2.2,0-4-1.8-4-4C70,982.2,71.8,980.4,74,980.4z M54,988.4c9.9,0,18,8.1,18,18
		c0,9.9-8.1,18-18,18c-9.9,0-18-8.1-18-18S44.1,988.4,54,988.4z M54,992.4c-7.8,0-14,6.2-14,14c0,7.8,6.2,14,14,14
		c7.8,0,14-6.2,14-14S61.8,992.4,54,992.4z"/>
</g>
</svg>
