<?xml version="1.0" encoding="utf-8"?>
<!-- Generator: Adobe Illustrator 23.0.1, SVG Export Plug-In . SVG Version: 6.00 Build 0)  -->
<svg version="1.1" id="Ñëîé_1" xmlns="http://www.w3.org/2000/svg" xmlns:xlink="http://www.w3.org/1999/xlink" x="0px" y="0px"
	 viewBox="0 0 38.5 36.7" style="enable-background:new 0 0 38.5 36.7;" xml:space="preserve">
<style type="text/css">
	.st0{fill:#CC0000;}
</style>
<path class="st0" d="M19.6,4.9c-0.3-1.5-0.6-2.6-0.7-3.1c6,0.2,15.4,2.6,15.5,8l0,0c0,0,0,0,0,0.1l0,0c-0.1,0.6-0.2,1.6-1.6,2.9
	c-2.2,1.8-6.2,2.7-9.3,3.1c0.3-0.1,0.6-0.1,0.9-0.2c1.2-0.3,2.6-0.7,3.8-1.2l0.2-0.1l-0.2-0.1c-2.2-0.5-4.7-0.9-7.4-1.1
	c-0.1-0.1-0.2-0.3-0.4-0.4v-0.1c-0.5-0.7-0.9-1.3-1.1-2c-0.1-0.2-0.2-0.5-0.2-0.7h0.1c0.5,0,1,0,1.5,0.1c4.2,0.2,8,1,11,2.2l0,0l0,0
	c0.8-0.7,1.3-1.5,1.3-2.3V9.6l0,0c-0.1-0.9-1.1-1.7-1.5-2l0,0C28.2,5.5,22.1,5,19.6,4.9z M32.8,24.1c-0.7,0.3-1.4,0.6-2.2,0.8
	c0.8,0.4,1.4,0.9,1.8,1.4c0,0.1,0.1,0.1,0.1,0.2c0,0,0,0.1,0.1,0.1c0.4,0.6,0.5,1.3,0.2,2c-0.9,2.1-4.5,4-9.1,4.9
	c4.6-0.6,10.1-2.1,10.6-5.7v-0.2v-0.1l0,0C34.3,26.2,33.8,25.1,32.8,24.1L32.8,24.1z M18.5,25.9c0.4-0.9-0.2-1.5-0.7-1.9h-0.1
	l0.1-0.1c1.3-1.1,1.3-1.3,1.1-1.8c-0.1-0.3-0.3-0.7-0.3-1.4c0-1.3,0.5-2,1.1-2.5c0.5-0.5,0.9-0.9,0.7-1.9v-0.1l0,0
	c0-0.1,0-0.1,0-0.1s0,0,0-0.1l0,0l-0.1-0.2c-0.2-0.4-0.5-0.8-0.6-0.9c-0.4-0.3-2.1-2.2-2.7-3.9s-0.2-3.9,0-4.4
	c0-0.2,0.1-0.4,0.2-0.6s0.2-0.3,0.3-0.5c0-0.1,0-0.2,0-0.2c-0.1-0.2-0.3-0.2-0.3-0.3l0,0H17c-0.3-1.6-0.5-2.7-0.6-3.1
	C11.5,2.4,7,5.2,4.4,9.4v0.1l0,0c0,0.1-0.1,0.2-0.2,0.3C4.1,10,4,10.2,3.9,10.4c0,0,0,0,0,0.1l0,0c-0.1,0.2-0.1,0.4,0,0.6
	c0.9,1.4,3.6,4,11.3,4.9h0.2l-0.2,0.2h-0.3c-0.6,0-1.3,0-2-0.2c-3.2-0.3-7.5-1.1-10.1-3c-0.4,1.2-0.6,2.5-0.7,3.8V17
	c0,0.3,0,0.5,0,0.8c0,0.4,0,0.9,0.1,1.4l0,0c0,0.1,0.1,0.2,0.1,0.4c0.5,1.2,3.1,5.3,13.1,6.3h0.1l-0.1,0.2h-0.1c-0.3,0-0.5,0-0.8,0
	c-0.4,0-0.9,0-1.3-0.1c-2.8-0.2-6.8-0.8-10-2.2C5,28.4,8.9,32,13.7,33.4c0.8,0.2,1.6,0.2,2.2-0.1c0.5-0.2,0.9-0.4,1.2-0.8
	c1.2-1.2,0.5-3.3,0.5-3.4c-0.7-1.8-0.3-2.1,0.2-2.4c0.2-0.1,0.4-0.2,0.5-0.5l0.1-0.1l0,0L18.5,25.9L18.5,25.9z M33.5,13.2
	c-0.8,0.6-1.8,1.1-3,1.5c3,1.2,4.7,2.7,4.8,4.3c0.1,1.4-1.1,2.9-3.4,4.1l0,0l0,0c-0.1,0-0.1-0.1-0.2-0.1c-2.8-1.7-6.2-2.8-10.1-3.3
	c-0.2,0.6-0.2,1.5,0.2,2.3c0.1,0.1,0.2,0.4,0.1,0.7c1.3,0.1,4.5,0.5,7.1,1.4l0,0l0.1,0.2H29c-2.7,0.9-5.9,1.5-9.5,1.8
	c4.2-0.1,8.2-0.8,11.4-2c0.5-0.2,1.4-0.5,1.6-0.7l0,0l0.1-0.1c3.2-1.5,5-3.4,5-5.4C37.5,16.3,36.1,14.6,33.5,13.2z"/>
</svg>
